<svg width="187" height="70" viewBox="0 0 187 70" fill="none" xmlns="http://www.w3.org/2000/svg">
<path d="M90.4971 45.85C88.5886 45.85 86.8883 45.57 85.4309 44.975C83.9735 44.415 82.5856 43.47 81.2323 42.21C81.0588 42.07 80.8853 41.86 80.7812 41.615C80.6771 41.37 80.6077 41.125 80.6077 40.88C80.6077 40.46 80.7465 40.075 81.0588 39.76C81.3711 39.445 81.7181 39.27 82.1692 39.27C82.5162 39.27 82.8632 39.41 83.1408 39.69C84.147 40.67 85.2574 41.44 86.4372 41.965C87.617 42.49 88.9356 42.735 90.4277 42.735C91.5728 42.735 92.5791 42.56 93.516 42.175C94.4182 41.825 95.1469 41.3 95.7021 40.635C96.2573 39.97 96.5349 39.235 96.5349 38.36C96.5349 37.31 96.2573 36.435 95.6674 35.77C95.0775 35.105 94.2794 34.51 93.2384 34.09C92.1974 33.635 91.0176 33.25 89.6643 32.9C88.4845 32.62 87.3741 32.27 86.3678 31.85C85.3615 31.43 84.494 30.94 83.7653 30.31C83.0366 29.68 82.4468 28.945 82.0651 28.07C81.6487 27.195 81.4752 26.145 81.4752 24.955C81.4752 23.45 81.8569 22.155 82.655 21.035C83.4183 19.915 84.5287 19.04 85.9167 18.41C87.3047 17.78 88.9009 17.465 90.7053 17.465C92.3015 17.465 93.7936 17.71 95.2163 18.235C96.639 18.76 97.7841 19.495 98.6169 20.405C99.1374 20.895 99.3803 21.385 99.3803 21.91C99.3803 22.26 99.2068 22.61 98.8945 22.96C98.5822 23.275 98.2005 23.45 97.7841 23.45C97.5065 23.45 97.2289 23.345 97.0207 23.17C96.5696 22.68 96.0144 22.225 95.3204 21.84C94.6264 21.455 93.8977 21.14 93.0996 20.895C92.3015 20.65 91.5034 20.545 90.7053 20.545C89.5255 20.545 88.4498 20.72 87.5476 21.07C86.6454 21.42 85.9167 21.91 85.4309 22.54C84.9104 23.17 84.6675 23.94 84.6675 24.815C84.6675 25.795 84.9451 26.635 85.535 27.265C86.0902 27.895 86.8883 28.42 87.8252 28.84C88.7968 29.26 89.8378 29.61 91.0176 29.925C92.3015 30.24 93.4813 30.59 94.557 31.01C95.6327 31.43 96.5696 31.92 97.333 32.515C98.0964 33.11 98.721 33.88 99.1374 34.825C99.5538 35.77 99.7967 36.89 99.7967 38.255C99.7967 39.69 99.3803 40.985 98.5822 42.105C97.7841 43.225 96.6737 44.135 95.2857 44.765C93.8283 45.535 92.2321 45.85 90.4971 45.85Z" fill="white"/>
<path d="M114.128 24.85C115.828 24.85 117.181 25.235 118.188 25.97C119.194 26.705 119.888 27.72 120.339 28.945C120.755 30.205 120.998 31.57 120.998 33.075V43.855C120.998 44.31 120.859 44.695 120.547 45.01C120.235 45.325 119.888 45.465 119.437 45.465C118.986 45.465 118.604 45.325 118.292 45.01C118.014 44.695 117.875 44.31 117.875 43.855V33.075C117.875 32.095 117.736 31.22 117.459 30.415C117.181 29.61 116.695 28.945 116.036 28.455C115.377 27.965 114.475 27.72 113.33 27.72C112.254 27.72 111.282 27.965 110.415 28.455C109.547 28.945 108.819 29.575 108.298 30.415C107.778 31.22 107.535 32.13 107.535 33.075V43.855C107.535 44.31 107.396 44.695 107.084 45.01C106.771 45.325 106.424 45.465 105.973 45.465C105.522 45.465 105.175 45.325 104.863 45.01C104.551 44.695 104.412 44.31 104.412 43.855V17.99C104.412 17.535 104.551 17.15 104.863 16.835C105.175 16.52 105.522 16.38 105.973 16.38C106.424 16.38 106.806 16.52 107.118 16.835C107.396 17.15 107.535 17.535 107.535 17.99V29.715L106.771 30.59C106.91 29.925 107.188 29.225 107.639 28.525C108.09 27.825 108.645 27.195 109.304 26.67C109.964 26.11 110.727 25.69 111.56 25.34C112.323 24.99 113.191 24.85 114.128 24.85Z" fill="white"/>
<path d="M128.146 22.19C127.487 22.19 127.001 22.05 126.689 21.805C126.377 21.56 126.238 21.14 126.238 20.58V20.02C126.238 19.46 126.411 19.075 126.758 18.795C127.105 18.55 127.591 18.41 128.216 18.41C128.84 18.41 129.292 18.55 129.604 18.795C129.916 19.04 130.055 19.46 130.055 20.02V20.58C130.055 21.14 129.881 21.525 129.569 21.805C129.222 22.085 128.771 22.19 128.146 22.19ZM129.743 43.855C129.743 44.31 129.604 44.695 129.292 45.01C128.979 45.325 128.632 45.465 128.181 45.465C127.73 45.465 127.314 45.325 127.036 45.01C126.724 44.695 126.585 44.31 126.585 43.855V26.46C126.585 26.005 126.724 25.62 127.036 25.305C127.348 24.99 127.73 24.85 128.181 24.85C128.632 24.85 128.979 24.99 129.292 25.305C129.604 25.62 129.743 26.005 129.743 26.46V43.855Z" fill="white"/>
<path d="M145.357 24.64C147.127 24.64 148.515 24.99 149.521 25.725C150.528 26.46 151.256 27.44 151.673 28.665C152.089 29.89 152.332 31.29 152.332 32.83V43.82C152.332 44.275 152.193 44.66 151.881 44.975C151.569 45.29 151.222 45.43 150.771 45.43C150.32 45.43 149.938 45.29 149.626 44.975C149.348 44.66 149.209 44.275 149.209 43.82V32.935C149.209 31.955 149.07 31.045 148.758 30.24C148.446 29.435 147.96 28.77 147.266 28.28C146.572 27.79 145.635 27.545 144.455 27.545C143.38 27.545 142.373 27.79 141.471 28.28C140.569 28.77 139.84 29.4 139.285 30.24C138.73 31.045 138.452 31.955 138.452 32.935V43.855C138.452 44.31 138.313 44.695 138.001 45.01C137.689 45.325 137.342 45.465 136.891 45.465C136.44 45.465 136.093 45.325 135.78 45.01C135.468 44.695 135.329 44.31 135.329 43.855V26.775C135.329 26.32 135.468 25.9 135.78 25.62C136.093 25.305 136.44 25.165 136.891 25.165C137.342 25.165 137.724 25.305 138.036 25.62C138.313 25.935 138.452 26.32 138.452 26.775V29.54L137.689 30.415C137.828 29.75 138.105 29.05 138.591 28.35C139.042 27.65 139.632 27.02 140.361 26.495C141.055 25.935 141.853 25.515 142.686 25.165C143.518 24.815 144.421 24.64 145.357 24.64Z" fill="white"/>
<path d="M172.979 24.85C173.43 24.85 173.777 24.99 174.089 25.305C174.401 25.62 174.54 26.005 174.54 26.46V43.54C174.54 45.78 174.124 47.6 173.256 49.035C172.389 50.47 171.244 51.555 169.821 52.255C168.363 52.955 166.733 53.305 164.928 53.305C163.922 53.305 162.95 53.2 162.013 52.99C161.076 52.78 160.313 52.5 159.723 52.15C159.237 51.905 158.89 51.625 158.682 51.275C158.474 50.925 158.439 50.54 158.613 50.155C158.786 49.7 159.064 49.35 159.411 49.175C159.758 49 160.14 49 160.521 49.175C160.938 49.35 161.528 49.63 162.326 49.945C163.124 50.26 163.991 50.435 164.998 50.435C166.351 50.435 167.496 50.19 168.468 49.665C169.439 49.14 170.168 48.37 170.688 47.355C171.209 46.34 171.452 45.08 171.452 43.61V40.845L171.868 41.79C171.486 42.63 170.931 43.365 170.237 43.96C169.543 44.555 168.71 45.045 167.808 45.36C166.871 45.675 165.9 45.85 164.824 45.85C163.332 45.85 162.048 45.535 161.042 44.87C160.001 44.24 159.237 43.33 158.717 42.21C158.196 41.055 157.953 39.76 157.953 38.29V26.46C157.953 26.005 158.092 25.62 158.405 25.305C158.717 24.99 159.064 24.85 159.515 24.85C159.966 24.85 160.348 24.99 160.66 25.305C160.938 25.62 161.076 26.005 161.076 26.46V37.59C161.076 39.375 161.458 40.705 162.256 41.615C163.02 42.525 164.234 42.98 165.865 42.98C166.906 42.98 167.843 42.735 168.676 42.28C169.509 41.825 170.168 41.16 170.688 40.32C171.209 39.48 171.452 38.57 171.452 37.59V26.46C171.452 26.005 171.591 25.62 171.903 25.305C172.146 24.99 172.527 24.85 172.979 24.85Z" fill="white"/>
<path d="M66.7971 32.83C50.1412 27.545 43.6871 15.575 41.1887 7.42003C40.6682 5.77503 38.3433 5.77503 37.8228 7.42003C32.8607 23.52 20.9587 30.17 12.8042 32.865C11.1733 33.39 11.208 35.735 12.8389 36.225C28.0721 40.845 34.8386 53.9 37.684 62.405C38.2392 64.085 40.5641 63.98 41.0499 62.3C45.6302 45.255 58.2957 38.71 66.7277 36.225C68.3933 35.735 68.428 33.355 66.7971 32.83ZM49.1002 35.35C46.1854 36.225 41.8133 38.465 40.2171 44.38C40.0436 44.975 39.2455 45.01 39.072 44.415C38.1004 41.475 35.7755 36.96 30.5011 35.35C29.9459 35.175 29.9112 34.37 30.5011 34.195C33.3118 33.25 37.4411 30.975 39.1414 25.41C39.3149 24.85 40.113 24.85 40.2865 25.41C41.154 28.21 43.3748 32.375 49.1349 34.195C49.6901 34.37 49.6901 35.175 49.1002 35.35Z" fill="url(#paint0_linear_257_112)"/>
<defs>
<linearGradient id="paint0_linear_257_112" x1="11.6138" y1="34.895" x2="68.0027" y2="34.895" gradientUnits="userSpaceOnUse">
<stop stop-color="#5931BA"/>
<stop offset="1" stop-color="#597EBA"/>
</linearGradient>
</defs>
</svg>
